<svg version="1.1" id="Layer_1" xmlns="http://www.w3.org/2000/svg" xmlns:xlink="http://www.w3.org/1999/xlink" x="0px" y="0px" viewBox="0 0 24 24" style="enable-background:new 0 0 24 24;" xml:space="preserve" width="24"  height="24" >
<style type="text/css">
	.st0{fill:#FFCB12;}
	.st1{fill:#0069DA;}
	.st2{fill:#86DA2F;}
	.st3{fill:#FF4649;}
	.st4{fill:#24C2FF;}
</style>
<g>
	<path class="st0" d="M11.316905,6.7679358c0.0389833-1.9033327,0.7862473-3.5860324,2.3463984-4.8783522   c0.5504103-0.4559205,1.2031984-0.5935402,1.9027719-0.46041c0.5329294,0.1014171,0.84513,0.469147,0.9108286,1.0268091   c0.0463219,0.3931949,0.1187763,0.781121,0.2809734,1.1451142c0.3441372,0.7723041,0.9408627,1.1804748,1.7860317,1.2247901   c0.3113918,0.0163279,0.6249847-0.0331483,0.9346581,0.0431924c0.4442348,0.1095133,0.7281208,0.43185,0.7596111,0.8873901   c0.0319633,0.4623652,0.0160828,0.9226184-0.1235771,1.3689442c-0.1193695,0.3814707-0.2485695,0.4389944-0.616724,0.2914524   c-0.8863945-0.3552375-1.8007507-0.3324456-2.722681-0.201066C16.4082279,7.2680936,16.3006935,7.192205,16.26577,6.8134661   c-0.0502453-0.5448513-0.143137-1.0770006-0.4159184-1.5609531c-0.0764503-0.1356339-0.1568775-0.2714353-0.2533407-0.3929863   c-0.5594711-0.7049742-1.3863678-0.73664-1.9962511-0.0708976c-0.5358744,0.5849543-0.764266,1.3112793-0.9251709,2.0677991   c-0.2274103,1.0691991-0.2954082,2.1495543-0.2569208,3.239749c0.0035181,0.0996695,0.0855875,0.2573137-0.0674553,0.2976494   c-0.1371746,0.0361547-0.1845284-0.1154728-0.2340279-0.2140932c-0.3641071-0.7254076-0.6131516-1.4874382-0.7292585-2.2928305   C11.3390675,7.5514488,11.3304129,7.2147937,11.316905,6.7679358z"/>
	<path class="st1" d="M5.3187876,17.4018974c-0.4121032-0.0026569-0.9606867,0.0037537-1.4355123-0.3239651   c-0.5434763-0.3750973-0.9136403-0.8495331-0.8582861-1.5581598c0.0187826-0.2404575,0.1282792-0.4370718,0.2699342-0.6232853   c0.2849903-0.3746347,0.5453002-0.7604332,0.6320119-1.2388868c0.1490932-0.8226576-0.1652832-1.4809465-0.7168789-2.0553818   c-0.1606078-0.1672573-0.309545-0.3414469-0.4244905-0.5425491c-0.2789397-0.4880199-0.2146268-0.9695845,0.1662345-1.3800869   c0.2928135-0.3156023,0.6677415-0.5032759,1.0412135-0.6926565C4.1802635,8.8919744,4.3414664,8.956192,4.4143887,9.151125   c0.3460588,0.9250746,1.0205488,1.5758762,1.7780614,2.1612692c0.363111,0.2806063,0.3770084,0.40942,0.0836887,0.7655544   c-0.5047555,0.6128473-0.7805519,1.3095779-0.7697787,2.1075993c0.0087614,0.6489935,0.4549565,1.1106167,1.1021538,1.173912   c0.6269536,0.0613108,1.1794386-0.1554413,1.7193022-0.4334936c0.9030008-0.4650764,1.6665955-1.112628,2.384757-1.819211   c0.2346439-0.2308588,0.460475-0.4706564,0.6918859-0.7048359c0.0608845-0.0616121,0.1158743-0.1674852,0.2206268-0.1121721   c0.1043901,0.0551233,0.0174789,0.1518412,0.0003595,0.2161884C11.032711,14.7339201,9.0375233,17.4618092,5.3187876,17.4018974z"/>
	<path class="st2" d="M16.5488567,10.4023018c-0.748991-0.0027466-1.8209171,0.1957779-2.8760853,0.5051346   c-0.0839987,0.0246277-0.1919069,0.1268082-0.2647371,0.0062313c-0.0716782-0.1186733,0.0393934-0.1955347,0.1162739-0.2661695   c0.9299383-0.8543863,2.0053988-1.433342,3.2507601-1.6636009c1.7824707-0.3295679,3.3991604,0.0758829,4.8346462,1.1731043   c0.6325245,0.4834728,0.9496651,1.1512814,0.9441204,1.9482727c-0.0031567,0.4538851-0.2128315,0.8026524-0.654768,0.9840212   c-0.3117599,0.127944-0.6206055,0.262929-0.9019661,0.45261c-0.7649899,0.5157232-1.0805264,1.3068829-0.8817997,2.2092209   c0.0705204,0.320199,0.1870899,0.6310148,0.1793156,0.9670362c-0.0099506,0.430069-0.2286148,0.7588348-0.6319084,0.9092655   c-0.4371719,0.1630688-0.8912468,0.2307892-1.3569679,0.1965733c-0.3305092-0.0242844-0.4340305-0.1340771-0.3899994-0.4570427   c0.1335316-0.9794731-0.107214-1.8938446-0.4549847-2.7930069c-0.161665-0.4179783-0.1133728-0.5134268,0.2994156-0.656496   c0.6503353-0.2254028,1.2324848-0.556777,1.6289997-1.1401901c0.4965229-0.7305613,0.294569-1.5397768-0.479023-1.9725494   C18.3784752,10.5072813,17.8220005,10.3951368,16.5488567,10.4023018z"/>
	<path class="st3" d="M10.2122755,10.7505016c-1.2041187-0.0230093-2.3638906-0.2366695-3.3977156-0.8844719   C5.7070131,9.1720333,4.7937293,8.2818851,4.2587566,7.062717c-0.286339-0.6525474-0.3821445-1.3410468-0.2919545-2.0520644   c0.0886855-0.6991525,0.6791368-1.185822,1.3796749-1.1282041c0.4009123,0.0329747,0.7932911,0.1359828,1.2016001,0.1173491   C7.2743459,3.9666531,7.8125696,3.63117,8.1956825,3.0258329C8.3281689,2.8164992,8.4307079,2.5925691,8.5177221,2.361038   c0.0404186-0.1075521,0.0784693-0.216501,0.127038-0.3204021c0.3035965-0.6494673,0.8425255-0.8654375,1.5075703-0.6012566   c0.3003092,0.1192943,0.5684805,0.2974038,0.8227406,0.4934726c0.2252903,0.1737309,0.2566319,0.3304565,0.1285124,0.5811167   c-0.0559511,0.1094661-0.1204338,0.2168417-0.1956768,0.3138115c-0.5170527,0.6663587-0.7939177,1.4325783-0.947587,2.2512925   C9.9497213,5.1355324,9.9380817,5.1920404,9.922513,5.247282C9.8355112,5.5559926,9.7211123,5.6264806,9.4154873,5.5278015   C8.9477425,5.3767786,8.4770164,5.2893949,7.9833879,5.366919C7.7132993,5.4093356,7.4507504,5.4759254,7.2036042,5.5888224   C6.5767241,5.8751822,6.333961,6.5422616,6.5826173,7.2630649c0.202374,0.5866399,0.6225004,0.9902635,1.0978994,1.3614469   c0.9977469,0.7790232,2.1229577,1.3085127,3.3019576,1.7398443c0.1027136,0.0375786,0.2465401,0.0456762,0.2196388,0.2118015   c-0.02633,0.1625872-0.1643515,0.132513-0.2747822,0.1389675C10.6891031,10.729044,10.4506407,10.7389517,10.2122755,10.7505016z"/>
	<path class="st4" d="M16.4275112,17.7843323c-0.0131817,0.6056442-0.1380615,1.3734074-0.43048,2.1076622   c-0.256506,0.6440754-0.7128754,1.1013489-1.3551741,1.3570137c-0.5639048,0.2244587-0.976778,0.0976601-1.3501396-0.376297   c-0.1833458-0.2327423-0.3687029-0.4635868-0.5945911-0.6588745c-0.7408028-0.640461-1.54177-0.720562-2.391737-0.2354717   c-0.2141323,0.1222095-0.4208679,0.2599926-0.6432409,0.3646049c-0.4700575,0.2211285-0.9215317,0.1029186-1.2197905-0.3153458   c-0.2551746-0.3578472-0.4477806-0.7516308-0.539113-1.1817532c-0.073297-0.3451824-0.0781865-0.5374508,0.3705673-0.6059456   c0.9155941-0.1397476,1.673007-0.6163788,2.3783693-1.1866074c0.3898163-0.3151302,0.4841843-0.3032436,0.7745533,0.1166515   c0.2842617,0.4110622,0.627037,0.7616673,1.0564785,1.0225086c1.1113348,0.675024,2.1385651,0.1243629,2.219758-1.1769695   c0.0560303-0.8980312-0.2213173-1.7189341-0.5257082-2.5395069c-0.2933731-0.7908821-0.695838-1.524518-1.1372623-2.2395916   c-0.0410328-0.0664692-0.1608963-0.1344557-0.0596771-0.2288427c0.090456-0.0843487,0.1858797-0.0163031,0.2696629,0.0351725   c0.7161932,0.4400177,1.3277063,0.996294,1.8420172,1.6605949C15.9425726,14.8019648,16.4290218,16.2206345,16.4275112,17.7843323z   "/>
	<path class="st0" d="M18.6489429,4.5494123c-1.0135231-0.0055285-1.8241158-0.8430328-1.8191681-1.8795631   c0.0048943-1.0253011,0.8384953-1.8606272,1.8488255-1.8526533c0.9714298,0.007667,1.8147697,0.8844271,1.808033,1.8796828   C20.4799137,3.689642,19.621769,4.5547194,18.6489429,4.5494123z"/>
	<path class="st1" d="M3.6367812,13.1647558c-0.0034504,1.1234922-0.7926841,1.9647255-1.8438045,1.9652834   c-0.9603796,0.0005102-1.8001097-0.8734417-1.7929311-1.8659973c0.0071865-0.9936237,0.8637179-1.8646917,1.8314756-1.8625574   C2.8441927,11.4037189,3.6398027,12.1808243,3.6367812,13.1647558z"/>
	<path class="st2" d="M23.9999962,15.372982c0.0021,1.0568027-0.7917309,1.8977051-1.7958603,1.9023438   c-1.0011654,0.0046253-1.8179474-0.8456421-1.8116589-1.8859348c0.0063877-1.0567274,0.7858582-1.8184519,1.8588009-1.8164854   C23.2623367,13.5747576,23.9979286,14.331953,23.9999962,15.372982z"/>
	<path class="st4" d="M11.4475698,24.0077877c-1.0779066-0.0078297-1.7994795-0.7703114-1.7908049-1.892334   c0.0080585-1.0423679,0.7735996-1.8416653,1.7581434-1.8356667c0.9779854,0.0059566,1.8153009,0.9003315,1.810339,1.9337025   C13.2204847,23.2050953,12.4182425,24.0148373,11.4475698,24.0077877z"/>
	<path class="st3" d="M8.2368021,1.803059C8.2330904,2.8453534,7.4139748,3.683964,6.4056749,3.6777675   C5.4316626,3.6717818,4.6197805,2.8362954,4.621757,1.8419834c0.0021477-1.0806032,0.7610407-1.862855,1.7944212-1.8496528   C7.3999481,0.0048991,8.2402287,0.8406129,8.2368021,1.803059z"/>
</g>
</svg>