<svg version="1.1" id="Layer_1" xmlns="http://www.w3.org/2000/svg" xmlns:xlink="http://www.w3.org/1999/xlink" x="0px" y="0px" viewBox="0 0 24 24" style="enable-background:new 0 0 24 24;" xml:space="preserve" width="24"  height="24" >
<style type="text/css">
	.st0{fill:#0D597F;}
</style>
<g>
	<g id="g56" transform="translate(268.1394,393.2718)">
		<path id="path58" class="st0" d="M-259.4-378.7v-2.5l-1.8,1.8c0.2,0.1,0.4,0.2,0.6,0.3c0.2,0.1,0.3,0.2,0.5,0.2    c0.2,0.1,0.3,0.1,0.4,0.1C-259.6-378.7-259.5-378.7-259.4-378.7 M-250.1-378.9C-250.1-378.9-250.1-378.9-250.1-378.9    c0.1,0.1,0.1,0.1,0.2,0.1c0.1,0,0.1,0.1,0.2,0.1c0.1,0,0.2,0,0.3,0c0.1,0,0.2,0,0.4,0c0.1,0,0.3-0.1,0.4-0.1    c0.2-0.1,0.3-0.1,0.5-0.2c0.2-0.1,0.4-0.2,0.6-0.3l-1.4-1.4l-4.6-4.6l-2,2l-2.7-2.8l-6.8,6.7c0.2,0.1,0.4,0.3,0.6,0.3    c0.2,0.1,0.3,0.2,0.5,0.2c0.2,0.1,0.3,0.1,0.4,0.1c0.1,0,0.2,0,0.4,0c0.1,0,0.2,0,0.3,0c0.1,0,0.2,0,0.2-0.1    c0.1,0,0.1-0.1,0.1-0.1c0,0,0.1,0,0.1,0l3.1-3.1l1.1-1.1l3,3l1.1,1.1c0,0,0,0,0.1,0c0,0,0.1,0,0.1,0.1c0.1,0,0.1,0.1,0.2,0.1    c0.1,0,0.2,0,0.3,0c0.1,0,0.2,0,0.4,0c0.1,0,0.3-0.1,0.4-0.1c0.2-0.1,0.3-0.1,0.5-0.2c0.2-0.1,0.4-0.2,0.6-0.3l-2.4-2.4l0.5-0.5    l2.1,2.1L-250.1-378.9 M-250.1-391.7l6,10.4l-6,10.4h-12l-6-10.4l6-10.4C-262.1-391.7-250.1-391.7-250.1-391.7z"/>
	</g>
	<g id="g60" transform="translate(302.5041,412.251)">
		<path id="path62" class="st0" d="M-288.2-400.8l-1.6-1.6l0.1-0.1l1.6,1.6L-288.2-400.8z"/>
	</g>
</g>
</svg>