<svg xmlns:xlink="http://www.w3.org/1999/xlink" xmlns="http://www.w3.org/2000/svg" width="24" height="24" fill="none"><path fill="#932279" d="M2.949 12.566v2.383L0 12l2.949-2.949v2.383h6.885L10.4 12l-.566.566H2.95zM13.131 3.515h2.384L17.2 5.2 13.131 9.27V3.515z"/><path fill="#932279" d="M13.131 10.869v-.8L18 5.2l-1.685-1.685h4.17v4.17L18.8 6l-4.869 4.869h-.8z"/><path fill="#932279" d="M18.8 6.8l1.685 1.685v2.384h-5.754l4.07-4.069z"/><path fill="#EFA724" d="M12 10.4l-.566-.566V2.95H9.051L12 0l2.949 2.949h-2.383v6.885L12 10.4zM20.485 13.131v2.384L18.8 17.2l-4.069-4.069h5.754z"/><path fill="#EFA724" d="M13.131 13.131h.8l4.87 4.87 1.684-1.686v4.17h-4.17L18 18.8l-4.869-4.869v-.8z"/><path fill="#EFA724" d="M17.2 18.8l-1.685 1.685H13.13v-5.754l4.07 4.07z"/><path fill="#262577" d="M5.2 18l-1.685-1.685v4.17h4.17L6 18.8l4.869-4.869v-.8h-.8L5.2 18.001z"/><path fill="#262577" d="M3.515 13.131v2.384L5.2 17.2l4.069-4.069H3.515zM13.6 12l.566-.566h6.885V9.051L24 12l-2.949 2.95v-2.384h-6.885L13.6 12zM10.869 20.485H8.485L6.8 18.8l4.069-4.068v5.753z"/><path fill="#9CCD2A" d="M3.515 3.515v4.17L5.2 6l4.869 4.869h.8v-.8L6 5.2l1.685-1.685h-4.17z"/><path fill="#9CCD2A" d="M5.2 6.8L3.515 8.485v2.384h5.754L5.2 6.8zM6.8 5.2l1.685-1.685h2.384v5.754L6.8 5.2zM12 13.6l.566.566v6.885h2.383L12 24l-2.949-2.949h2.383v-6.885L12 13.6z"/></svg>