<svg xmlns="http://www.w3.org/2000/svg" fill="none" viewBox="0 0 24 24"><path fill="#03A9F4" d="M12 1c3.3 0 5.977.232 5.977.518l.006.011a.045.045 0 01.006-.004c.245-.143 1.782 2.084 3.432 4.975 1.651 2.89 2.79 5.35 2.546 5.493a.045.045 0 01-.014.005l.001.002-.001.002.014.005c.245.143-.895 2.602-2.546 5.493-1.65 2.89-3.187 5.118-3.431 4.975a.04.04 0 01-.006-.004l-.007.011c0 .286-2.676.518-5.977.518s-5.977-.232-5.977-.518l-.007-.011a.04.04 0 01-.006.004c-.245.143-1.781-2.084-3.432-4.975-1.65-2.89-2.79-5.35-2.545-5.493a.046.046 0 01.014-.005L.045 12l.002-.002a.046.046 0 01-.014-.005C-.212 11.85.928 9.39 2.578 6.5c1.65-2.89 3.187-5.118 3.432-4.975a.046.046 0 01.006.004l.007-.011C6.023 1.232 8.699 1 12 1z"/><path fill="#fff" fill-rule="evenodd" d="M10 7a2 2 0 012-2h2a2 2 0 012 2v2a2 2 0 01-2 2h-2v2h2a2 2 0 012 2v2a2 2 0 01-2 2h-2a2 2 0 01-2-2v-2H8a2 2 0 01-2-2v-2a2 2 0 012-2h2V7z" clip-rule="evenodd"/></svg>