<svg xmlns:xlink="http://www.w3.org/1999/xlink" xmlns="http://www.w3.org/2000/svg" width="25" height="30" fill="none"><path fill="#A80030" d="M14.357 15.799c-.495.006.094.255.74.354.18-.14.341-.28.486-.418-.403.1-.813.101-1.226.064zM17.016 15.136c.295-.407.51-.853.586-1.314-.066.328-.244.612-.412.912-.926.583-.087-.347 0-.7-.997 1.253-.138.752-.174 1.102zM17.998 12.581c.06-.892-.176-.61-.255-.27.093.049.166.63.255.27zM12.478.386c.264.047.571.084.528.147.29-.064.355-.122-.528-.147z"/><path fill="#A80030" d="M13.006.533L12.82.57l.174-.015.013-.023z"/><path fill="#A80030" d="M21.252 12.92c.03.801-.235 1.19-.473 1.878l-.428.214c-.35.68.034.432-.217.973-.547.487-1.66 1.522-2.016 1.617-.26-.006.176-.307.233-.425-.732.503-.587.755-1.708 1.06l-.032-.072c-2.763 1.3-6.6-1.276-6.55-4.79-.029.223-.083.167-.144.258-.143-1.808.835-3.624 2.483-4.366 1.613-.798 3.503-.47 4.658.606-.634-.831-1.897-1.712-3.394-1.63-1.466.024-2.837.955-3.295 1.967-.751.472-.838 1.822-1.166 2.07-.44 3.236.829 4.634 2.975 6.279.337.227.095.262.14.435a5.823 5.823 0 0 1-1.902-1.455c.285.417.592.823.99 1.141-.673-.228-1.57-1.629-1.833-1.686 1.159 2.075 4.702 3.639 6.557 2.863-.859.032-1.95.018-2.914-.339-.405-.208-.956-.64-.857-.721 2.532.946 5.147.716 7.338-1.04.557-.434 1.166-1.172 1.342-1.182-.265.398.045.191-.159.543.556-.895-.24-.364.574-1.546l.302.414c-.112-.743.923-1.646.818-2.822.237-.36.265.387.013 1.214.35-.917.092-1.065.181-1.822.098.255.225.525.29.794-.227-.887.234-1.494.348-2.01-.112-.049-.351.393-.406-.655.008-.455.127-.238.172-.35-.089-.051-.323-.4-.466-1.069.104-.157.277.408.417.43-.09-.531-.246-.937-.252-1.345-.411-.858-.146.115-.48-.369-.436-1.364.364-.316.418-.936.663.96 1.04 2.449 1.214 3.065a12.558 12.558 0 0 0-.607-2.184c.201.085-.325-1.546.261-.466C23.051 5.158 21 3.006 19.11 1.996c.231.212.523.477.418.519-.939-.56-.774-.603-.908-.84-.766-.31-.816.026-1.323.002C15.855.912 15.577.993 14.25.514l.06.282c-.955-.318-1.112.12-2.145 0-.063-.048.33-.177.654-.225-.923.122-.88-.18-1.783.035.222-.157.458-.26.696-.393-.754.046-1.799.439-1.476.082C9.027.843 6.845 1.612 5.62 2.76l-.038-.257c-.561.674-2.447 2.012-2.597 2.884l-.15.035c-.292.495-.481 1.055-.713 1.564-.382.65-.56.25-.505.352C.866 8.861.493 10.141.17 11.19c.23.343.006 2.067.093 3.446-.377 6.812 4.78 13.425 10.418 14.952.827.296 2.056.285 3.1.315-1.232-.353-1.392-.187-2.593-.606-.867-.408-1.057-.874-1.67-1.407l.242.43c-1.204-.426-.7-.527-1.68-.838l.26-.339c-.39-.03-1.033-.657-1.209-1.005l-.427.017c-.513-.633-.786-1.089-.766-1.442l-.138.245c-.156-.268-1.887-2.373-.99-1.883-.166-.152-.388-.248-.628-.685l.183-.209c-.432-.556-.795-1.268-.768-1.505.23.31.39.369.549.422-1.091-2.707-1.152-.149-1.979-2.755l.175-.015c-.134-.201-.215-.42-.323-.636l.076-.758c-.786-.908-.22-3.862-.106-5.482.078-.658.655-1.36 1.094-2.46l-.267-.045c.511-.892 2.919-3.581 4.034-3.443.54-.679-.108-.003-.213-.173 1.186-1.228 1.56-.868 2.36-1.089.864-.512-.741.2-.332-.195 1.493-.382 1.058-.867 3.006-1.06.205.116-.477.18-.648.331 1.244-.608 3.936-.47 5.685.338 2.029.949 4.309 3.752 4.398 6.389l.103.028c-.052 1.048.16 2.26-.208 3.374l.25-.527z"/><path fill="#A80030" d="M8.949 16.479l-.07.347c.326.443.584.922 1 1.268-.3-.584-.521-.826-.93-1.615zM9.718 16.449c-.172-.191-.274-.42-.388-.649.11.402.333.747.54 1.098l-.152-.45zM23.34 13.488l-.072.182a8.811 8.811 0 0 1-.863 2.756 8.658 8.658 0 0 0 .936-2.938zM12.576.148c.335-.123.823-.067 1.179-.148-.463.039-.924.062-1.38.12l.2.028zM.815 6.402c.077.715-.538.992.136.521.361-.814-.141-.225-.136-.52zM.023 9.71c.155-.477.183-.763.242-1.038-.429.548-.197.665-.242 1.038z"/></svg>