<svg xmlns="http://www.w3.org/2000/svg" viewBox="0 0 24 24"><path fill="#E24329" d="M12.006 23.593l4.416-13.591H7.59l4.416 13.59z"/><path fill="#FC6D26" d="M12.007 23.592L7.59 10.002H1.402l10.605 13.59z"/><path fill="#FCA326" d="M1.402 10.002L.06 14.131a.914.914 0 00.332 1.022l11.614 8.438-10.605-13.59z"/><path fill="#E24329" d="M1.402 10.002H7.59L4.93 1.816a.457.457 0 00-.869 0l-2.66 8.186z"/><path fill="#FC6D26" d="M12.006 23.592l4.416-13.59h6.19l-10.606 13.59z"/><path fill="#FCA326" d="M22.611 10.002l1.342 4.13a.915.915 0 01-.332 1.022l-11.615 8.438 10.605-13.59z"/><path fill="#E24329" d="M22.611 10.002h-6.189l2.66-8.186a.457.457 0 01.87 0l2.66 8.186z"/></svg>