<svg xmlns="http://www.w3.org/2000/svg" viewBox="0 0 24 24"><g clip-path="url(#clip0)"><path fill="#D33833" fill-rule="evenodd" d="M24 14.557v.22a11.972 11.972 0 01-4.118 8.938 1.184 1.184 0 01-.78.285H4.898c-.287 0-.566-.097-.781-.285A11.972 11.972 0 010 14.667c0-6.628 5.373-12 12-12 6.59 0 11.94 5.313 12 11.89z" clip-rule="evenodd"/><path fill="#335061" d="M15.392 23.88l-6.34-.38H4.336l-.206-2.244-1.02-2.908-.221-.684 3.547-2.351 1.108-.428.976 1.154.842.727.976.3.443.128.532 2.223.399.47 1.02-.342-.71 1.326 3.858 1.753-.488 1.256zM20 19.063l.5-2.564-1.871-1.913-.4-.342-1.063 1.026v3.976L15.84 23.5l2.66-.501s1.236-2.684 1.236-2.812c0-.047.116-.528.264-1.124z"/><path fill="#231F20" fill-rule="evenodd" d="M23.375 14.773a11.349 11.349 0 01-4.056 8.602H4.681a11.35 11.35 0 01-4.056-8.708C.625 8.385 5.718 3.292 12 3.292c6.247 0 11.317 5.035 11.375 11.268v.213zm.625-.216v.22a11.972 11.972 0 01-4.118 8.938 1.184 1.184 0 01-.78.285H4.898c-.287 0-.566-.097-.781-.285A11.972 11.972 0 010 14.667c0-6.628 5.373-12 12-12 6.59 0 11.94 5.313 12 11.89z" clip-rule="evenodd"/><path fill="#6D6B6D" fill-rule="evenodd" d="M4.884 7.959l1.152-.385.932.428.443.94.532-.085.133-.513-.266-.984.266-2.351-.222-1.283.798-.898 1.73-1.325L9.894.86 7.455 2.016l-1.02.77-.576 1.197-.887 1.154-.266 1.368.178 1.454z" clip-rule="evenodd"/><path fill="#D33833" fill-rule="evenodd" d="M17.9 18.323c-.752-.021-1.431-.108-2.026-.27.04-.235-.036-.465.025-.635.166-.115.444-.113.695-.14a1.249 1.249 0 00-.772-.084c-.006-.164-.081-.265-.127-.393.422-.145 1.421-1.1 1.983-.784.267.15.381 1.01.402 1.427.017.346-.033.696-.18.879zM14.303 17.137l-.006.166c-.235.148-.615.147-.872.272.38.016.679.104.938.228l-.017.415c-.43.284-.824.708-1.33.974-.24.126-1.082.45-1.337.393-.144-.032-.157-.205-.215-.367-.123-.349-.405-.904-.43-1.428-.032-.663-.101-1.773.64-1.637.597.11 1.292.375 1.754.62.283.148.446.332.875.364zM14.73 17.928c-.065-.361-.14-.464-.111-.78.998-.64 1.185 1.103.112.78z" clip-rule="evenodd"/><path fill="#fff" d="M16.132 22.581l-.975-2.394-1.02-1.41s.222-.6.532-.6h1.02l.976.343-.09 1.582-.443 2.48zM10.9 16.125l-1.228-.128-1.152-.342v.384l.563.6 1.773.769"/><path fill="#F0D6B7" fill-rule="evenodd" d="M16.9 15.483l-1.774.257-2.395.257-1.552.042-1.507-.042-1.153-.342-1.02-1.07-.798-2.18-.177-.47-1.064-.342-.62-.983-.444-1.411.488-1.24 1.152-.385.931.427.444.941.532-.086.177-.213-.177-.984-.045-1.24.266-1.71-.01-.977.809-1.246 1.418-.983L12.864.477l2.75.384 2.393 1.668 1.109 1.71.71 1.24.177 3.078-.532 2.651-.976 2.352-.93 1.24M16.1 15.986c-.315.199-.584.447-.887.66-.673.031-1.04-.046-1.533-.418.008-.03.057-.017.06-.053.719.309 1.634-.126 2.36-.189z" clip-rule="evenodd"/><path fill="#81B0C4" fill-rule="evenodd" d="M18.296 19.196c-.613 1.012-1.2 2.052-1.926 2.945.305-.865.435-2.311.481-3.414.638-.288 1.184.064 1.445.469zM12.322 20.716c.198-.826.973-1.254 1.676-1.709.727.889 1.516 2.39 2.002 3.492-1.149-.334-2.67-1.233-3.678-1.783z" clip-rule="evenodd"/><path fill="#231F20" d="M12.688 4.483c-1.208-.271-1.809.488-2.175 1.275-.327-.076-.197-.505-.114-.724.204-.541.992-1.252 1.678-1.243a.856.856 0 01.463.14c.118.08.207.189.215.32a.385.385 0 01-.067.232zM18.578 5.81h-.002c-.03.498.115.84.26 1.18.039.09.077.18.112.274-.155.094-.39.107-.625.119-.204.01-.407.021-.56.085-.023.931 1.494.472 1.724-.046v-.001c-.257-.361-.454-.776-.651-1.19-.067-.14-.133-.28-.202-.418l-.056-.002zM14.39 7.636c-.014-.219-.171-.354-.298-.463a2.268 2.268 0 01-.073-.064c-.239-.225-.358-.506-.484-.801-.067-.16-.136-.322-.226-.482l-.002-.001c-.18.49.308 1.324.582 1.746-.136.127-.313.165-.505.163a3.263 3.263 0 01-.525-.067c-.153-.028-.304-.055-.44-.061h-.003c-.454.692.888.822 1.463.658.158-.044.431-.272.469-.375a.614.614 0 00.042-.253zM18.36 10.48c-.376.536-2.61 1.254-3.254.985-.342-.143-.42-.82-.124-1.194v.001c.05.083.074.187.097.294.037.167.075.338.215.432a.429.429 0 00.175.066c.073.012.149.018.225.019.587.006 1.228-.3 1.719-.534.14-.066.267-.127.378-.174.498-.208.07-.693-.257-1.063l-.098-.112-.117-.135c-.646-.746-1.434-1.658-1.403-2.745a.199.199 0 01.114-.044c.023 0 .043.007.06.019.077.053.11.201.131.304.009.04.016.074.024.092.346.781 1.218 1.78 1.854 2.45.245.258.448.483.466.76.01.168-.047.354-.205.579zM6.93 9.915c-.12-.067-.2-.235-.28-.402-.1-.208-.198-.415-.375-.426-.4-.023-.385.65-.374 1.164l.003.206c-.314-.274-.37-1.12-.139-1.555-.191-.09-.305.024-.41.128-.038.04-.076.077-.115.102.07-.492.367-.7.695-.696.17.002.35.062.51.17.273.183.49.505.516.918.008.123-.001.253-.03.39zM18.912 11.026c-.404.741-.974 1.557-2.159 1.58-.024-.239-.042-.603.002-.747.652-.06 1.125-.308 1.597-.556a8.98 8.98 0 01.56-.277zM15.78 11.909c.218.001.43-.002.629-.007.025.099.039.208.046.323.008.123.009.251.01.38v.046c-1.32.063-2.88-.251-3.226-1.144h.002c.578.293 1.526.386 2.4.4l.138.002zM16.536 13.732c.179-.07.323-.263.39-.427l-.317.008c-1.08.03-2.246.063-2.964-.422a1.465 1.465 0 01-.55-.67c-.531 0-.278.23-.098.393.045.04.086.077.109.105.054.068.111.147.172.23.172.24.375.521.64.7.039.027.08.051.121.073.674.345 2.012.2 2.497.01zM15.923 20.508a.24.24 0 00.244-.235.24.24 0 00-.244-.236.24.24 0 00-.243.236c0 .13.109.235.243.235zM15.923 19.182a.24.24 0 01-.243.235.24.24 0 01-.244-.235c0-.13.109-.235.244-.235a.24.24 0 01.243.235z"/><path fill="#231F20" fill-rule="evenodd" d="M19.32 23.357c.069.215-1.862.43-1.83.641H8.83c-.063-.623-.455-.587-.932-.544-.21.02-.438.04-.661.006-.002-.276.199-.314.388-.349.153-.029.298-.056.323-.205.017-.109-.046-.174-.114-.245-.092-.095-.193-.2-.118-.429.157.055.28.142.402.228.139.098.278.196.469.248.216-.455.145-1.141.085-1.721-.03-.3-.058-.572-.042-.769.009-.108.056-.6.307-.514.143.05.098.573.053 1.087-.025.288-.05.572-.04.768.005.135.003.268.002.398l-.001.071c-.006.36-.014.907.13 1.123 1.766-.231 4.434-.245 6.449-.175a26.498 26.498 0 01-2.429-1.179c-.297-.161-1.232-.497-1.318-.769-.082-.26.065-.448.214-.638.097-.124.196-.25.23-.397-.808.425-1.027-.288-1.217-.91a13 13 0 00-.06-.19c-.19-.589-.3-1.029-.346-1.369l-.244-.111c-.695-.318-1.415-.647-2.006-1.052a4.198 4.198 0 01-.337-.363c-.28-.32-.64-.727-.71-.7-1.476.56-2.856 1.531-4.09 2.449.9 1.861 1.434 3.542 1.651 5.75H4.49c-.098-.078-.194-.158-.289-.24-.075-.824-.235-1.148-.463-2.003-.096-.359-.234-.693-.372-1.026-.097-.236-.194-.47-.276-.715a13.502 13.502 0 00-.206-.553c-.159-.41-.326-.841-.384-1.212-.09-.59.306-.773.723-.965.153-.07.31-.143.445-.237.557-.386 1.028-.65 1.558-.946.213-.119.436-.243.677-.382.057-.034.142-.079.239-.13.323-.173.784-.42.85-.55.125-.244-.09-.562-.262-.818a2.138 2.138 0 01-.154-.249c-.196-.414-.298-.766-.326-1.174a2.358 2.358 0 01-1.569-.972c-.536-.758-.908-2.16-.444-3.228.014-.032.05-.077.09-.127.064-.08.139-.172.155-.25.031-.152-.01-.332-.05-.51a1.988 1.988 0 01-.059-.353c-.02-.571.018-1.11.137-1.576l.002-.002c.17-.662.506-1.176 1.074-1.421.33-1.27 1.379-1.827 2.492-2.419.21-.111.423-.224.633-.343.44-.25.922-.42 1.42-.595l.185-.065c1.975-.7 4.981-.588 6.685.557.04.028.08.055.118.084.712.519 1.85 1.615 2.257 2.409.459.894.708 2.044.784 3.267.103 1.643-.106 3.419-.537 4.88l-.007.025c-.1.34-.245.83-.445 1.232a4.26 4.26 0 01-.182.309c-.168.27-.367.59-.355.777l.004.028c.042.195.586.636.944.926l.085.068h-.002c.083.068.15.123.19.16.088.082.197.171.31.265.36.296.774.638.817.967.048.367-.114.841-.251 1.244-.036.103-.07.202-.098.293-.46 1.485-.909 2.857-1.43 4.181-.157.398-.02.823.117 1.25zm.138-18.084l-.003-.002c.174.501.203 1.14.234 1.8.005.12.01.239.017.359.117 2.2-.417 4.468-1.564 6.058-.063.088-.124.178-.185.267-.235.342-.467.682-.81.914-1.038.703-2.616 1.34-3.968.903a5.417 5.417 0 01-1.24-.574h.002a5.018 5.018 0 01-.127-.083c-.877-.59-1.469-1.384-2.121-2.257l-.092-.124v.001l-.002-.002c.026.721.553 1.314 1.073 1.866.452.482.998 1.025 1.586 1.25-.49-.111-1.242-.146-1.447.278-1.14-.073-2.202-.185-2.743-.929l-.003-.005c-.427-.59-.86-1.591-1.054-2.365a3.764 3.764 0 01-.092-.515.3.3 0 01.001-.068c.025-.13.132-.23.24-.334.134-.126.27-.253.256-.437a.463.463 0 00-.055-.181c-.238-.002-.379.108-.52.218-.125.099-.25.198-.445.216a1.204 1.204 0 01-.778-.213c-.576-.386-.956-1.212-.996-1.848a1.633 1.633 0 01-.001-.192c.04-.753.701-1.474 1.605-1.38.638.068.855.74.98 1.338.367.02.9-.015 1.073-.292l-.003-.064c-.02-.298-.094-.57-.168-.836-.07-.255-.138-.503-.154-.762A1.782 1.782 0 017.95 7.1c.015-.41.106-.805.195-1.195.108-.47.214-.933.184-1.405a2.222 2.222 0 00-.186-.77 2.91 2.91 0 01.329-.542H8.47c.707-.935 2-1.678 2.996-2.157 1.464-.704 3.794-.141 5.17.608.08.043.157.09.232.14.575.386 1.039.976 1.472 1.527l.23.288c-.558-.16-1.056-.009-1.251.317h-.002a.645.645 0 00-.073.464.945.945 0 01.522-.23l-.002-.001c.352-.044.738.086 1.05.297.232.157.423.358.53.566.044.083.08.172.113.265zM7.702 3.485a.56.56 0 00.137-.014.522.522 0 00.238-.153h.003c.139-.142.269-.356.392-.558.106-.174.208-.34.305-.444.13-.139.272-.238.41-.334.143-.1.28-.196.391-.328.035-.016.075-.028.114-.04.118-.036.235-.072.241-.223a.467.467 0 00-.073-.064c-.04-.027-.081-.04-.126-.028-1.326.362-3.026 1.292-3.571 2.44h.003l-.001.002c.195-.027.362-.086.527-.143.192-.067.38-.133.604-.147a1.12 1.12 0 01.21.016c.064.008.13.017.196.018zm7.859 18.498a7.677 7.677 0 00-.115-.293c-.415-.957-.83-1.915-1.458-2.683-.06.04-.122.078-.183.117-.65.415-1.312.837-1.493 1.592l.29.158c.945.519 2.041 1.12 3.082 1.423a7.476 7.476 0 01-.123-.314zm1.28-3.257c-.046 1.103-.177 2.55-.481 3.414.612-.752 1.125-1.608 1.637-2.464.096-.16.192-.321.29-.48-.262-.405-.808-.758-1.446-.47zm-1.359-.466c-.114-.012-.222.04-.334.092-.157.075-.324.154-.533.07-.037.038-.072.079-.107.12-.044.05-.087.1-.134.147.5.581.828 1.316 1.155 2.05.191.429.382.857.607 1.254.253-.8.288-1.658.324-2.528.011-.259.022-.52.038-.78-.259.017-.451-.116-.628-.237-.131-.09-.254-.174-.388-.188zm-.874-1.112c-.02.215.01.33.05.497.02.078.042.167.063.282 1.073.324.886-1.42-.113-.779zm-1.19-.377a6.777 6.777 0 00-1.755-.619c-.724-.133-.673.927-.642 1.594l.003.043c.018.4.188.818.321 1.148.042.103.08.197.11.28l.032.106c.037.125.069.236.182.262.255.057 1.096-.267 1.336-.393.302-.16.564-.373.817-.581.172-.14.34-.279.514-.393l.016-.415a2.334 2.334 0 00-.938-.229c.118-.057.262-.088.405-.118.17-.037.34-.073.467-.154l.002-.044.005-.121c-.319-.024-.491-.132-.675-.247-.063-.04-.127-.08-.2-.119zM9 15.998c-.384.376 1.077.888 1.542.915-.001-.116.032-.23.064-.335.032-.11.062-.21.048-.297-.183-.031-.386-.045-.588-.06-.407-.027-.815-.055-1.066-.223zm4.73.176c-.002.02-.017.025-.031.03-.013.005-.026.01-.03.023.494.373.861.45 1.533.418.128-.09.25-.186.372-.282.167-.131.334-.262.516-.377-.232.02-.484.078-.743.138-.55.127-1.129.26-1.618.05zm4.34 1.27c-.021-.418-.135-1.277-.403-1.427-.39-.22-.992.174-1.464.484-.207.136-.39.255-.519.3.014.038.03.074.047.11.038.084.077.168.081.282.25-.06.555-.019.772.084l-.151.014c-.206.017-.41.034-.544.127-.032.09-.026.198-.02.314.007.102.013.211-.005.321.595.162 1.274.248 2.027.27.146-.184.196-.533.179-.88zm-.78-2.023c1.23-.574 1.45 2.149.969 3.026.04.143.135.238.23.332a.9.9 0 01.205.265c-.377.652-.604 1.326-1.005 1.954-.431.677-.916 1.287-1.33 1.978.164.01.266-.017.608-.047.355-.032.75-.067 1.067-.067.185-.071.717-1.066.857-1.409l.088-.211c.466-1.089.956-2.46 1.174-3.5l.035-.156v-.002c.059-.26.143-.633.118-.804-.04-.285-.353-.514-.62-.71a3.888 3.888 0 01-.234-.18c-.209-.18-.385-.352-.557-.52-.239-.233-.47-.459-.772-.692-.11.157-.288.287-.457.411-.15.111-.295.217-.376.332zM5.143 7.44v-.001c-.008-.093-.017-.189-.024-.288a12.156 12.156 0 01-.02-.283c-.038-.71 0-1.49.443-1.96.54-.573 1.286-.93 2.193-.997.249.61.137 1.283.024 1.967-.1.6-.2 1.21-.06 1.796.018.076.045.161.072.248.112.35.235.733-.168.745v-.001h-.002c.009-.795-.733-1.378-1.545-1.389m-.904.246H5.15l.002-.002v.002z" clip-rule="evenodd"/></g><defs><clipPath id="clip0"><path fill="#fff" d="M0 0h24v24H0z"/></clipPath></defs></svg>