<svg xmlns="http://www.w3.org/2000/svg" viewBox="0 0 24 24"><rect width="24" height="24" fill="#3782C4" rx="8"/><path fill="#fff" d="M12.015 7.45c-2.073 0-3.83 1.405-4.374 3.31a2.972 2.972 0 00-2.68-1.718A2.973 2.973 0 002 12.002a2.974 2.974 0 002.96 2.96 2.972 2.972 0 002.68-1.717c.545 1.904 2.302 3.31 4.375 3.31 2.058 0 3.806-1.385 4.365-3.268a2.971 2.971 0 002.66 1.676 2.974 2.974 0 002.96-2.96 2.974 2.974 0 00-2.96-2.961 2.971 2.971 0 00-2.66 1.675c-.559-1.883-2.307-3.267-4.365-3.267zm0 1.738a2.802 2.802 0 012.815 2.814 2.802 2.802 0 01-2.815 2.815 2.802 2.802 0 01-2.814-2.815 2.801 2.801 0 012.814-2.814zM4.96 10.78a1.21 1.21 0 011.223 1.222 1.21 1.21 0 01-1.223 1.223 1.21 1.21 0 01-1.222-1.223A1.21 1.21 0 014.96 10.78zm14.08 0a1.21 1.21 0 011.222 1.222 1.21 1.21 0 01-1.223 1.223 1.21 1.21 0 01-1.222-1.223 1.21 1.21 0 011.222-1.222z"/></svg>