<svg xmlns="http://www.w3.org/2000/svg" viewBox="0 0 24 24"><path fill="#090" d="M2.154 17.75c.103.181.252.33.432.433l8.826 5.156a1.148 1.148 0 001.174 0l8.827-5.156a1.165 1.165 0 00.586-1.027V6.845a1.182 1.182 0 00-.587-1.028L12.585.662a1.146 1.146 0 00-1.172 0L2.586 5.817A1.181 1.181 0 002 6.845v10.31c-.002.21.052.415.155.595"/><path fill="#fff" d="M9.227 15.868c0 .3-.117.588-.326.8a1.105 1.105 0 01-1.575 0 1.14 1.14 0 01-.326-.8L7.001 8.1c0-.602.524-1.1 1.265-1.1a1.954 1.954 0 011.518.69l.336.41 4.653 5.657V8.132a1.147 1.147 0 01.326-.8A1.113 1.113 0 0115.886 7a1.098 1.098 0 01.788.331 1.132 1.132 0 01.326.8l-.001 7.769c0 .601-.524 1.1-1.265 1.1a1.953 1.953 0 01-1.518-.69l-4.99-6.068v5.627h.001z"/></svg>