<svg xmlns:xlink="http://www.w3.org/1999/xlink" xmlns="http://www.w3.org/2000/svg" width="25" height="24" fill="none"><path fill="#FFB516" d="M8.11 11.732c0-1.853.893-3.505 2.283-4.566L8.267 3.854A9.721 9.721 0 0 0 4.513 9c.99.62 1.647 1.704 1.647 2.935A3.46 3.46 0 0 1 4.62 14.8a9.74 9.74 0 0 0 3.733 4.87l1.976-3.422c-1.354-1.063-2.22-2.691-2.22-4.516zM22.21 21.491c0 1.386-1.154 2.51-2.576 2.51-1.423 0-2.577-1.125-2.577-2.51 0-1.386 1.154-2.508 2.577-2.508 1.422 0 2.576 1.122 2.576 2.508z"/><path fill="#FE6309" d="M5.155 11.935c0 1.386-1.155 2.509-2.577 2.509C1.155 14.444 0 13.32 0 11.935s1.155-2.509 2.577-2.509c1.423 0 2.578 1.123 2.578 2.509zM21.569 5.358a3.63 3.63 0 0 1-2.07.64c-1.98 0-3.583-1.561-3.583-3.488 0-.101.005-.202.013-.302a10.232 10.232 0 0 0-1.86-.169c-1.591 0-3.097.365-4.432 1.012l1.98 3.393a6.082 6.082 0 0 1 2.451-.513c3.056 0 5.575 2.24 5.92 5.126l4.004-.118a9.526 9.526 0 0 0-2.424-5.581z"/><path fill="#D70000" d="M19.634 18.003c.598 0 1.163.143 1.66.397a9.544 9.544 0 0 0 2.707-5.993l-4.004-.076c-.308 2.922-2.845 5.203-5.928 5.203a6.072 6.072 0 0 1-2.401-.491l-1.99 3.39c1.325.635 2.814.993 4.391.993.683 0 1.347-.067 1.992-.194.136-1.806 1.683-3.229 3.573-3.229zM22.076 2.509c0 1.386-1.153 2.508-2.577 2.508s-2.577-1.124-2.577-2.508C16.921 1.124 18.075 0 19.5 0s2.577 1.124 2.577 2.509z"/></svg>